<svg width="1628" height="660" viewBox="0 0 1628 660" fill="none" xmlns="http://www.w3.org/2000/svg">
<!-- Glow lifted from Group 138, shifted into the Group 139 bowl coordinate space -->
<g transform="translate(-250.931,-360.5)">
<g opacity="0.5" filter="url(#filter0_f_4445_111)">
<ellipse cx="1045.43" cy="615.836" rx="210.503" ry="197.074" fill="#AF04FF"/>
<path d="M1045.43 419.041C1161.55 419.041 1255.66 507.166 1255.66 615.835C1255.66 724.505 1161.55 812.63 1045.43 812.63C929.313 812.63 835.21 724.505 835.21 615.835C835.21 507.166 929.313 419.041 1045.43 419.041Z" stroke="url(#paint1_linear_4445_111)" stroke-opacity="0.25" stroke-width="0.558363"/>
</g>
<g opacity="0.5" filter="url(#filter1_f_4445_111)">
<ellipse cx="1311.2" cy="577.162" rx="139.269" ry="130.384" fill="#E1E1E1"/>
<path d="M1311.2 447.057C1387.98 447.057 1450.19 505.324 1450.19 577.161C1450.19 648.999 1387.98 707.266 1311.2 707.266C1234.42 707.266 1172.21 648.999 1172.21 577.161C1172.21 505.324 1234.42 447.057 1311.2 447.057Z" stroke="url(#paint2_linear_4445_111)" stroke-opacity="0.25" stroke-width="0.558363"/>
</g>
<g opacity="0.5" filter="url(#filter2_f_4445_111)">
<ellipse cx="981.199" cy="563.184" rx="139.269" ry="130.384" fill="#E1E1E1"/>
<path d="M981.199 433.08C1057.98 433.08 1120.19 491.346 1120.19 563.184C1120.19 635.022 1057.98 693.289 981.199 693.289C904.42 693.289 842.21 635.022 842.21 563.184C842.21 491.347 904.42 433.08 981.199 433.08Z" stroke="url(#paint3_linear_4445_111)" stroke-opacity="0.25" stroke-width="0.558363"/>
</g>
<g filter="url(#filter3_f_4445_111)">
<ellipse cx="1045.62" cy="624.886" rx="104.685" ry="97.5692" fill="#E1E1E1"/>
<path d="M1045.62 527.596C1103.3 527.596 1150.02 571.172 1150.02 624.886C1150.02 678.599 1103.3 722.176 1045.62 722.176C987.936 722.176 941.21 678.599 941.21 624.886C941.21 571.172 987.935 527.596 1045.62 527.596Z" stroke="url(#paint4_linear_4445_111)" stroke-opacity="0.25" stroke-width="0.558363"/>
</g>
<g filter="url(#filter4_f_4445_111)">
<ellipse cx="1192.62" cy="594.135" rx="104.685" ry="97.5692" fill="#E1E1E1"/>
<path d="M1192.62 496.846C1250.3 496.846 1297.02 540.422 1297.02 594.136C1297.02 647.849 1250.3 691.425 1192.62 691.426C1134.94 691.426 1088.21 647.849 1088.21 594.136C1088.21 540.422 1134.94 496.846 1192.62 496.846Z" stroke="url(#paint5_linear_4445_111)" stroke-opacity="0.25" stroke-width="0.558363"/>
</g>
<g filter="url(#filter5_f_4445_111)">
<ellipse cx="1041.93" cy="623.216" rx="195" ry="194.284" fill="#FF5900"/>
<path d="M1041.93 429.212C1149.47 429.212 1236.65 516.072 1236.65 623.217C1236.65 730.361 1149.47 817.222 1041.93 817.222C934.388 817.222 847.21 730.361 847.21 623.217C847.21 516.072 934.388 429.212 1041.93 429.212Z" stroke="url(#paint6_linear_4445_111)" stroke-opacity="0.25" stroke-width="0.558363"/>
</g>
<g filter="url(#filter6_f_4445_111)">
<path d="M1302.93 325.78C1410.47 325.78 1497.65 412.64 1497.65 519.785C1497.65 626.929 1410.47 713.789 1302.93 713.789C1195.39 713.789 1108.21 626.929 1108.21 519.785C1108.21 412.64 1195.39 325.78 1302.93 325.78Z" stroke="url(#paint7_linear_4445_111)" stroke-opacity="0.25" stroke-width="0.558363"/>
</g>
<g filter="url(#filter7_f_4445_111)">
<path d="M1236.93 614.83C1236.93 722.13 1149.63 809.114 1041.93 809.114C934.235 809.114 846.931 722.13 846.931 614.83C846.931 507.53 934.235 420.546 1041.93 420.546C1149.63 420.546 1236.93 507.53 1236.93 614.83Z" fill="#FF5900"/>
<path d="M1041.93 420.825C1149.47 420.825 1236.65 507.685 1236.65 614.83C1236.65 721.975 1149.47 808.835 1041.93 808.835C934.388 808.835 847.21 721.975 847.21 614.83C847.21 507.685 934.388 420.825 1041.93 420.825Z" stroke="url(#paint8_linear_4445_111)" stroke-opacity="0.25" stroke-width="0.558363"/>
</g>
<g filter="url(#filter8_f_4445_111)">
<ellipse cx="1037.93" cy="640.455" rx="130" ry="86.659" fill="white"/>
<path d="M1037.93 554.075C1073.78 554.075 1106.23 563.762 1129.7 579.41C1153.17 595.059 1167.65 616.647 1167.65 640.455C1167.65 664.263 1153.17 685.851 1129.7 701.5C1106.23 717.147 1073.78 726.835 1037.93 726.835C1002.08 726.835 969.636 717.147 946.162 701.5C922.687 685.851 908.21 664.263 908.21 640.455C908.21 616.647 922.687 595.059 946.162 579.41C969.636 563.762 1002.08 554.075 1037.93 554.075Z" stroke="url(#paint9_linear_4445_111)" stroke-opacity="0.25" stroke-width="0.558363"/>
</g>
<g filter="url(#filter9_f_4445_111)">
<ellipse cx="1348.43" cy="581.284" rx="145.5" ry="144.898" fill="#FF5900" fill-opacity="0.25"/>
<path d="M1348.43 436.666C1428.63 436.666 1493.65 501.415 1493.65 581.284C1493.65 661.154 1428.64 725.902 1348.43 725.902C1268.23 725.902 1203.21 661.154 1203.21 581.284C1203.21 501.415 1268.23 436.666 1348.43 436.666Z" stroke="url(#paint10_linear_4445_111)" stroke-opacity="0.25" stroke-width="0.558363"/>
</g>
<g filter="url(#filter10_f_4445_111)">
<ellipse cx="1139.75" cy="584.617" rx="139.269" ry="130.384" fill="white"/>
<path d="M1139.75 454.512C1216.53 454.512 1278.74 512.779 1278.74 584.616C1278.74 656.454 1216.53 714.721 1139.75 714.721C1062.97 714.721 1000.76 656.454 1000.76 584.616C1000.76 512.779 1062.97 454.512 1139.75 454.512Z" stroke="url(#paint11_linear_4445_111)" stroke-opacity="0.25" stroke-width="0.558363"/>
</g>
<g filter="url(#filter11_f_4445_111)">
<ellipse cx="1126.93" cy="671.671" rx="200" ry="47.0568" fill="white"/>
<path d="M1126.93 624.893C1182.14 624.893 1232.12 630.159 1268.29 638.668C1286.37 642.924 1300.99 647.986 1311.08 653.598C1321.19 659.223 1326.65 665.341 1326.65 671.67C1326.65 678 1321.19 684.119 1311.08 689.744C1300.99 695.355 1286.37 700.418 1268.29 704.673C1232.12 713.183 1182.14 718.448 1126.93 718.448C1071.72 718.448 1021.74 713.183 985.573 704.673C967.488 700.418 952.871 695.355 942.783 689.744C932.671 684.119 927.21 678 927.21 671.67C927.21 665.341 932.671 659.223 942.783 653.598C952.871 647.986 967.488 642.924 985.573 638.668C1021.74 630.159 1071.72 624.893 1126.93 624.893Z" stroke="url(#paint12_linear_4445_111)" stroke-opacity="0.25" stroke-width="0.558363"/>
</g>
<g filter="url(#filter12_f_4445_111)">
<path d="M647.022 611.321L433.931 501.969L490.789 483.821C605.53 526.321 844.54 618.859 882.651 649.013C930.289 686.704 1171.04 667.16 1333.42 667.16C1463.32 667.16 1689.43 546.175 1786.24 485.682L1898.93 367.023C1891.08 443.647 1793.1 613.834 1464.04 681.586C1134.98 749.337 907.58 700.199 835.013 667.16L647.022 611.321Z" fill="#F16C24"/>
<path d="M647.022 611.321L433.931 501.969L490.789 483.821C605.53 526.321 844.54 618.859 882.651 649.013C930.289 686.704 1171.04 667.16 1333.42 667.16C1463.32 667.16 1689.43 546.175 1786.24 485.682L1898.93 367.023C1891.08 443.647 1793.1 613.834 1464.04 681.586C1134.98 749.337 907.58 700.199 835.013 667.16L647.022 611.321Z" stroke="url(#paint13_linear_4445_111)" stroke-opacity="0.25"/>
</g>
<g filter="url(#filter13_f_4445_111)">
<path d="M628.022 569.798L414.931 460.446L471.789 442.298C586.53 484.798 825.54 577.336 863.651 607.49C911.289 645.181 1152.04 625.638 1314.42 625.638C1444.32 625.638 1670.43 504.652 1767.24 444.159L1879.93 325.5C1872.08 402.125 1774.1 572.311 1445.04 640.063C1115.98 707.815 888.58 658.676 816.013 625.638L628.022 569.798Z" fill="white" fill-opacity="0.4"/>
<path d="M628.022 569.798L414.931 460.446L471.789 442.298C586.53 484.798 825.54 577.336 863.651 607.49C911.289 645.181 1152.04 625.638 1314.42 625.638C1444.32 625.638 1670.43 504.652 1767.24 444.159L1879.93 325.5C1872.08 402.125 1774.1 572.311 1445.04 640.063C1115.98 707.815 888.58 658.676 816.013 625.638L628.022 569.798Z" stroke="url(#paint14_linear_4445_111)" stroke-opacity="0.25"/>
</g>
</g>
<!-- Group 139 bowl + curved text + arrow (drawn on top of the glow) -->
<path d="M0 0C321.192 484.756 1304.23 491.233 1628 0H0Z" fill="url(#paint0_linear_4450_255)"/>
<g clip-path="url(#clip0_4450_255)">
<path d="M261.81 135.492L244.708 168.224L264.621 137.08L267.803 138.873L251.373 171.975L270.642 140.475L275.017 142.939L248.164 182.83L243.885 180.421L253.773 159.969L241.265 178.943L236.986 176.533L257.394 133L261.81 135.492Z" fill="white"/>
<path d="M282.985 147.265L273.454 164.76L275.662 165.951L285.193 148.456L291.036 151.632L268.105 193.727L262.263 190.551L271.794 173.056L269.586 171.865L260.055 189.36L254.157 186.157L277.088 144.075L282.985 147.279V147.265Z" fill="white"/>
<path d="M309.372 161.256L303.612 172.235L297.139 168.853L294.657 173.59L299.443 176.095L293.655 187.129L288.869 184.624L286.387 189.36L292.86 192.742L287.1 203.721L271.342 195.493L293.601 153.042L309.359 161.269L309.372 161.256Z" fill="white"/>
<path d="M298.633 209.511L306.588 193.741C307.164 192.605 307.465 191.811 307.506 191.373C307.548 190.935 307.314 190.592 306.834 190.346L305.765 189.812L296.398 208.402L290.404 205.391L311.977 162.597L319.973 166.608C322.058 167.649 323.306 169.031 323.744 170.756C324.183 172.481 323.648 174.808 322.167 177.752L319.397 183.255C317.449 187.129 315.337 189.237 313.088 189.593C314.268 191.359 313.856 194.247 311.84 198.245L304.626 212.55L298.633 209.539V209.511ZM310.044 184.446C310.4 184.624 310.743 184.583 311.058 184.309C311.374 184.035 311.744 183.487 312.156 182.68L316.38 174.302C316.791 173.48 316.997 172.892 317.011 172.508C317.024 172.125 316.846 171.851 316.489 171.673L315.228 171.044L308.782 183.816L310.044 184.446Z" fill="white"/>
<path d="M337.678 175.301L335.1 180.599L330.739 178.477L324.101 192.071L327.831 193.878L325.253 199.176L321.523 197.369L314.885 210.962L319.246 213.084L316.668 218.382L307.986 214.166L329.011 171.098L337.692 175.315L337.678 175.301Z" fill="white"/>
<path d="M370.004 190.305L365.314 200.586L359.06 197.752L356.166 204.104L360.884 206.24L356.166 216.589L351.448 214.453L343.864 231.086L335.183 227.143L355.055 183.529L370.004 190.319V190.305Z" fill="white"/>
<path d="M385.186 196.944L369.346 233.139C368.07 236.069 366.63 237.972 365.039 238.848C363.448 239.724 361.583 239.697 359.457 238.766C357.359 237.849 356.084 236.507 355.617 234.741C355.165 232.975 355.576 230.621 356.852 227.705L372.678 191.51L377.972 193.823L361.748 230.894C361.405 231.688 361.227 232.277 361.227 232.647C361.227 233.016 361.405 233.29 361.775 233.441C362.145 233.605 362.461 233.55 362.735 233.304C363.009 233.044 363.311 232.523 363.668 231.729L379.892 194.658L385.186 196.972V196.944Z" fill="white"/>
<path d="M388.011 198.149L401.849 203.94L399.147 210.374L394.869 208.58L379.028 246.336L373.748 244.132L389.588 206.376L385.309 204.583L388.011 198.149Z" fill="white"/>
<path d="M427.825 214.275L414.823 247.117C413.191 251.237 410.942 253.92 408.089 255.166C405.223 256.412 401.959 256.316 398.27 254.865C394.58 253.414 392.126 251.251 390.891 248.39C389.657 245.529 389.863 242.038 391.495 237.917L404.496 205.076L415.194 209.292L401.424 244.05C401.109 244.858 400.944 245.446 400.958 245.816C400.958 246.186 401.163 246.446 401.534 246.596C401.904 246.747 402.22 246.678 402.48 246.418C402.741 246.158 403.029 245.624 403.358 244.817L417.127 210.059L427.825 214.275Z" fill="white"/>
<path d="M420.433 262.627L427.098 244.803C427.4 243.995 427.551 243.393 427.523 243.023C427.51 242.654 427.318 242.394 426.934 242.257L425.398 241.682L417.923 261.696L414.344 260.368L431.117 215.48L436.232 217.383C437.864 217.985 438.879 218.875 439.249 220.039C439.633 221.202 439.332 223.091 438.358 225.692L435.149 234.289C433.585 238.478 431.844 240.628 429.937 240.751C431.322 242.038 431.254 244.721 429.732 248.787L424.054 263.982L420.419 262.627H420.433ZM428.758 237.383C429.128 237.52 429.444 237.452 429.704 237.192C429.965 236.918 430.253 236.357 430.568 235.508L434.957 223.776C435.259 222.968 435.409 222.366 435.382 221.996C435.368 221.627 435.176 221.366 434.792 221.23L433.256 220.655L427.222 236.822L428.758 237.397V237.383Z" fill="white"/>
<path d="M458.368 225.35L454.925 235.029L448.809 232.866L445.942 240.929L450.619 242.585L447.177 252.264L442.5 250.607L439.634 258.671L445.75 260.833L442.308 270.512L428.072 265.461L444.146 220.312L458.382 225.364L458.368 225.35Z" fill="white"/>
<path d="M459.026 234.413C459.986 231.552 461.302 229.608 462.962 228.581C464.635 227.554 466.761 227.472 469.339 228.334C471.821 229.17 473.426 230.484 474.139 232.291C474.852 234.098 474.701 236.507 473.687 239.546L471.972 244.68L465.554 242.531L467.625 236.37C468.022 235.207 467.885 234.508 467.227 234.289C466.569 234.07 466.048 234.55 465.65 235.713L462.564 244.926C462.303 245.707 462.399 246.391 462.852 246.98L466.185 251.634C466.939 252.702 467.419 253.811 467.625 254.974C467.83 256.124 467.693 257.438 467.2 258.903L463.977 268.513C462.934 271.635 461.549 273.702 459.821 274.742C458.093 275.782 455.995 275.878 453.512 275.043C450.989 274.208 449.398 272.839 448.726 270.95C448.054 269.061 448.246 266.542 449.302 263.38L450.893 258.643L457.256 260.765L455.282 266.665C454.884 267.829 455.021 268.527 455.679 268.746C456.365 268.979 456.914 268.513 457.298 267.336L460.452 257.918C460.699 257.178 460.589 256.521 460.137 255.933L456.735 251.484C455.981 250.416 455.501 249.307 455.295 248.157C455.09 247.007 455.227 245.72 455.707 244.283L459.012 234.413H459.026Z" fill="white"/>
<path d="M495.616 237.452L508.536 241.257L506.862 246.897L502.679 245.665L490.748 285.967L486.14 284.612L498.071 244.31L493.943 243.092L495.616 237.452Z" fill="white"/>
<path d="M518.136 243.954L530.931 247.377L525.404 295.509L514.762 292.662L516.312 284.366L512.197 283.271L509.386 291.238L498.743 288.391L518.122 243.968L518.136 243.954ZM518.588 272.141L521.18 258.096L516.38 271.552L518.588 272.141Z" fill="white"/>
<path d="M546.854 300.574L539.325 298.795L539.64 282.545L535.978 298.001L529.45 296.454L540.504 249.827L547.032 251.374L543.124 267.829L550.365 252.168L557.853 253.934L545.469 275.906L546.854 300.574Z" fill="white"/>
<path d="M570.512 256.644L569.278 262.394L564.532 261.381L561.351 276.166L565.396 277.042L564.162 282.792L560.103 281.915L556.921 296.7L561.666 297.713L560.432 303.463L550.996 301.437L561.09 254.591L570.526 256.617L570.512 256.644Z" fill="white"/>
<path d="M588.848 268.322C589.342 265.447 590.26 263.407 591.591 262.202C592.921 260.998 594.773 260.601 597.145 261.011C599.435 261.408 600.999 262.38 601.808 263.941C602.631 265.502 602.768 267.801 602.247 270.854L601.301 276.316L595.609 275.331L596.747 268.719C596.953 267.5 596.72 266.843 596.048 266.72C595.362 266.597 594.923 267.144 594.718 268.363L592.866 279.013C592.729 279.821 592.907 280.478 593.415 280.984L596.898 284.503C597.721 285.297 598.297 286.2 598.64 287.241C598.983 288.267 599.024 289.458 598.791 290.814L596.912 301.669C596.377 304.777 595.417 306.954 594.059 308.227C592.702 309.5 590.85 309.924 588.519 309.527C586.187 309.13 584.637 308.103 583.842 306.461C583.06 304.818 582.937 302.381 583.499 299.15L584.363 294.154L590.055 295.139L588.971 301.409C588.766 302.628 588.999 303.285 589.671 303.408C590.356 303.531 590.795 302.984 591.001 301.765L592.866 290.978C592.99 290.266 592.811 289.623 592.304 289.075L588.793 285.694C587.97 284.9 587.394 284.01 587.051 282.997C586.708 281.984 586.653 280.806 586.887 279.465L588.807 268.335L588.848 268.322Z" fill="white"/>
<path d="M612.657 264.201L609.64 284.448L612.232 284.831L615.249 264.584L620.913 265.419L613.85 312.813L608.186 311.978L611.203 291.731L608.611 291.347L605.594 311.594L599.93 310.759L606.993 263.366L612.657 264.201Z" fill="white"/>
<path d="M630.801 266.72L645.325 268.363L647.176 316.796L635.258 315.441L635.546 307.624L631.542 307.173L630.061 314.852L618.143 313.497L630.815 266.706L630.801 266.72ZM636.081 294.113L636.561 280.67L634.024 293.88L636.081 294.113Z" fill="white"/>
<path d="M664.306 286.269C664.086 288.993 663.551 290.937 662.701 292.087C661.851 293.237 660.548 293.743 658.806 293.593L657.229 293.469L655.336 317.358L651.482 317.056L655.268 269.294L660.699 269.718C662.44 269.855 663.647 270.43 664.333 271.443C665.019 272.456 665.252 274.359 665.032 277.124L664.306 286.269ZM657.613 288.705L659.19 288.829C659.876 288.883 660.287 288.117 660.411 286.515L661.22 276.207C661.288 275.344 661.261 274.728 661.151 274.386C661.028 274.03 660.781 273.839 660.383 273.811L658.806 273.688L657.613 288.705Z" fill="white"/>
<path d="M684 271.155L683.452 281.409L676.965 281.067L676.512 289.609L681.463 289.869L680.914 300.122L675.964 299.862L675.511 308.405L681.998 308.747L681.449 319L666.363 318.193L668.914 270.348L684 271.155Z" fill="white"/>
</g>
<g clip-path="url(#clip1_4450_255)">
<path d="M961.479 270.601L966.506 269.984L978.629 316.848L973.657 317.451L970.958 305.632L965.767 306.263L965.931 318.397L961.014 319L961.493 270.601H961.479ZM969.643 299.86L965.328 281.117L965.63 300.354L969.63 299.86H969.643Z" fill="white"/>
<path d="M984.135 267.681L990.573 288.59L987.149 267.269L996.586 265.939L1003.23 313.461L994.217 314.723L987.875 294.91L991.148 315.148L981.711 316.478L975.067 268.956L984.135 267.681Z" fill="white"/>
<path d="M1028.08 297.42C1028.71 301.3 1028.35 304.371 1027.02 306.62C1025.69 308.868 1023.46 310.253 1020.35 310.746L1006.86 312.913L999.258 265.528L1012.75 263.362C1015.76 262.882 1018.3 263.609 1020.35 265.542C1022.41 267.475 1023.76 270.45 1024.41 274.468L1028.09 297.406L1028.08 297.42ZM1014.02 276.223C1013.74 274.468 1013.48 273.357 1013.22 272.918C1012.96 272.479 1012.48 272.315 1011.76 272.425L1011.01 272.548L1015.7 301.725L1016.45 301.601C1016.8 301.547 1017.08 301.437 1017.28 301.3C1017.48 301.149 1017.6 300.902 1017.65 300.546C1017.71 300.189 1017.71 299.709 1017.65 299.092C1017.59 298.475 1017.48 297.666 1017.33 296.679L1014.04 276.236L1014.02 276.223Z" fill="white"/>
<path d="M1068.99 290.454C1069.7 294.129 1069.49 297.036 1068.34 299.174C1067.18 301.313 1065.14 302.657 1062.21 303.233L1049.97 305.619L1040.79 258.522L1053.03 256.136C1055.86 255.588 1058.24 256.164 1060.2 257.877C1062.16 259.591 1063.51 262.347 1064.25 266.159L1068.99 290.454ZM1054.86 268.01C1054.53 266.351 1054.25 265.309 1053.99 264.897C1053.75 264.486 1053.28 264.335 1052.61 264.472L1051.71 264.651L1057.65 295.13L1058.56 294.952C1059.2 294.828 1059.55 294.472 1059.62 293.91C1059.69 293.347 1059.55 292.155 1059.21 290.358L1054.86 268.023V268.01Z" fill="white"/>
<path d="M1082.84 298.996L1079.06 281.227C1078.83 280.116 1078.59 279.39 1078.38 279.061C1078.16 278.732 1077.8 278.622 1077.31 278.732L1075.98 279.02L1080.35 299.531L1074.76 300.724L1064.77 253.792L1072.39 252.174C1074.49 251.721 1076.16 251.995 1077.4 252.996C1078.65 253.997 1079.61 256.013 1080.25 259.043L1081.73 266.022C1082.65 270.354 1082.35 273.247 1080.79 274.701C1081.81 275.002 1082.68 275.729 1083.37 276.922C1084.07 278.101 1084.66 279.815 1085.13 282.05L1088.48 297.803L1082.84 299.01V298.996ZM1076.16 272.603C1076.55 272.521 1076.77 272.288 1076.84 271.89C1076.91 271.492 1076.84 270.862 1076.66 269.97L1074.49 259.715C1074.29 258.823 1074.09 258.22 1073.88 257.919C1073.68 257.617 1073.36 257.507 1072.98 257.589L1071.49 257.905L1074.68 272.918L1076.17 272.603H1076.16Z" fill="white"/>
<path d="M1099.98 245.963L1103 259.125L1095.53 260.853L1096.36 264.459L1101.77 263.211L1104.81 276.442L1099.4 277.69L1100.24 281.296L1107.72 279.568L1110.74 292.73L1092.12 297.022L1081.36 250.254L1099.99 245.963H1099.98Z" fill="white"/>
<path d="M1108.18 243.92L1111.77 243.029L1129.36 288.096L1125.5 289.056L1121.14 277.141L1115.85 278.457L1117.56 291.03L1113.7 291.99L1108.17 243.92H1108.18ZM1119.47 272.617L1112.55 253.778L1115.24 273.659L1119.47 272.603V272.617Z" fill="white"/>
<path d="M1134.22 237.16L1142.95 234.802L1155.43 281.131L1147.74 283.201L1143.02 262.539L1146 283.667L1142.11 284.723L1134.07 264.952L1140.32 285.203L1132.69 287.26L1120.21 240.931L1128.56 238.668L1138.13 262.21L1134.19 237.147L1134.22 237.16Z" fill="white"/>
<path d="M1148.66 241.849C1147.81 238.956 1147.78 236.612 1148.56 234.802C1149.34 233.006 1151.04 231.717 1153.66 230.949C1156.17 230.209 1158.23 230.387 1159.85 231.457C1161.47 232.526 1162.73 234.596 1163.63 237.668L1165.15 242.864L1158.67 244.77L1156.84 238.518C1156.49 237.338 1155.99 236.845 1155.33 237.037C1154.67 237.229 1154.51 237.914 1154.85 239.107L1157.58 248.444C1157.81 249.24 1158.27 249.733 1158.99 249.966L1164.37 251.886C1165.6 252.338 1166.63 252.969 1167.45 253.805C1168.29 254.628 1168.92 255.793 1169.36 257.288L1172.21 267.022C1173.12 270.176 1173.18 272.671 1172.36 274.509C1171.53 276.346 1169.86 277.635 1167.36 278.361C1164.81 279.102 1162.73 278.896 1161.1 277.731C1159.47 276.565 1158.19 274.385 1157.25 271.177L1155.84 266.378L1162.27 264.5L1164.03 270.491C1164.37 271.67 1164.88 272.164 1165.55 271.972C1166.25 271.766 1166.43 271.081 1166.07 269.888L1163.27 260.345C1163.06 259.605 1162.59 259.111 1161.89 258.892L1156.56 257.164C1155.33 256.712 1154.3 256.081 1153.48 255.245C1152.65 254.422 1152.03 253.284 1151.6 251.831L1148.69 241.836L1148.66 241.849Z" fill="white"/>
<path d="M1200.97 248.664L1204.05 258.042C1205 260.907 1205.23 263.101 1204.78 264.623C1204.33 266.145 1203.11 267.228 1201.15 267.873C1199.18 268.517 1197.56 268.366 1196.27 267.42C1194.98 266.474 1193.87 264.568 1192.93 261.703L1182.77 230.771C1181.83 227.947 1181.62 225.767 1182.08 224.245C1182.56 222.723 1183.78 221.626 1185.74 220.981C1187.71 220.337 1189.33 220.488 1190.59 221.448C1191.86 222.407 1192.96 224.286 1193.87 227.11L1196.96 236.488L1192.41 237.983L1189.14 228.015C1188.86 227.192 1188.6 226.644 1188.37 226.356C1188.12 226.082 1187.81 226 1187.44 226.123C1187.05 226.246 1186.85 226.493 1186.82 226.863C1186.79 227.234 1186.92 227.837 1187.18 228.66L1197.78 260.962C1198.05 261.785 1198.31 262.333 1198.55 262.621C1198.78 262.909 1199.11 262.978 1199.48 262.854C1199.86 262.731 1200.07 262.484 1200.09 262.114C1200.12 261.744 1200 261.141 1199.74 260.318L1196.4 250.158L1200.94 248.664H1200.97Z" fill="white"/>
<path d="M1205.57 214.222C1209.09 212.974 1212.12 212.947 1214.64 214.14C1217.16 215.333 1219.09 217.855 1220.45 221.681L1228.67 245.017C1230.06 248.979 1230.17 252.297 1228.98 254.943C1227.8 257.589 1225.46 259.536 1221.97 260.77C1218.48 262.004 1215.44 261.963 1212.83 260.647C1210.23 259.331 1208.23 256.698 1206.83 252.736L1198.61 229.4C1197.26 225.561 1197.2 222.394 1198.44 219.871C1199.67 217.348 1202.04 215.47 1205.57 214.222ZM1208.63 222.887C1208.24 223.024 1208.05 223.271 1208.02 223.641C1208 224.012 1208.13 224.615 1208.42 225.424L1217.42 250.967C1217.72 251.831 1218 252.393 1218.26 252.667C1218.5 252.942 1218.82 253.01 1219.2 252.873C1219.57 252.736 1219.78 252.489 1219.8 252.119C1219.83 251.749 1219.68 251.132 1219.38 250.268L1210.38 224.725C1210.09 223.902 1209.82 223.353 1209.57 223.079C1209.33 222.805 1209.01 222.736 1208.63 222.86V222.887Z" fill="white"/>
<path d="M1231.72 205.283L1238.39 202.732L1255.54 247.539L1249.64 249.802L1241.94 228.015L1247.76 250.528L1244.71 251.694L1234.01 231.059L1242.87 252.393L1236.97 254.655L1219.82 209.835L1226.28 207.353L1238.64 231.251L1231.74 205.269L1231.72 205.283Z" fill="white"/>
<path d="M1250.51 197.769L1252.73 203.226L1248.24 205.05L1253.94 219.089L1257.77 217.526L1259.99 222.983L1256.16 224.546L1261.86 238.586L1266.35 236.763L1268.57 242.22L1259.64 245.853L1241.57 201.402L1250.5 197.769H1250.51Z" fill="white"/>
<path d="M1274.28 187.5L1280.13 184.84L1305.88 225.835L1300.43 228.317L1294.61 218.39L1289.99 220.488L1293.69 231.388L1288.24 233.87L1274.29 187.5H1274.28ZM1291.12 212.302L1281.86 196.412L1287.69 213.865L1291.12 212.302Z" fill="white"/>
<path d="M1298.8 175.941L1313.93 206.914L1320.84 203.541L1326.77 215.675L1309.59 224.08L1288.53 180.973L1298.8 175.941Z" fill="white"/>
<path d="M1314.65 167.907L1336.65 210.547L1330.74 213.605L1308.74 170.964L1314.65 167.907Z" fill="white"/>
<path d="M1325.4 162.176L1344.26 192.093L1329.18 160.105L1337.34 155.622L1355.22 200.539L1345.43 205.913L1317.24 166.659L1325.4 162.176Z" fill="white"/>
<path d="M1346.85 150L1349.26 154.141L1345.4 156.39L1353.85 170.896L1357.23 168.921L1359.65 173.062L1356.26 175.036L1364.71 189.543L1368.58 187.294L1370.99 191.435L1363.84 195.603L1339.69 154.155L1346.84 149.987L1346.85 150Z" fill="white"/>
</g>
<rect x="769.75" y="308.75" width="118.5" height="116.5" rx="58.25" fill="url(#paint1_linear_4450_255)"/>
<rect x="769.75" y="308.75" width="118.5" height="116.5" rx="58.25" stroke="white" stroke-width="1.5"/>
<path d="M827.752 403.542C828.441 404.232 829.559 404.232 830.248 403.542L841.478 392.312C842.168 391.623 842.168 390.505 841.478 389.816C840.789 389.127 839.672 389.127 838.983 389.816L829 399.799L819.017 389.816C818.328 389.127 817.211 389.127 816.522 389.816C815.832 390.505 815.832 391.623 816.522 392.312L827.752 403.542ZM829 331.706H827.235V402.295H829H830.765V331.706H829Z" fill="white"/>
<defs>
<filter id="filter0_f_4445_111" x="707.624" y="291.455" width="675.62" height="648.761" filterUnits="userSpaceOnUse" color-interpolation-filters="sRGB">
<feFlood flood-opacity="0" result="BackgroundImageFix"/>
<feBlend mode="normal" in="SourceGraphic" in2="BackgroundImageFix" result="shape"/>
<feGaussianBlur stdDeviation="63.6534" result="effect1_foregroundBlur_4445_111"/>
</filter>
<filter id="filter1_f_4445_111" x="1044.62" y="319.471" width="533.152" height="515.382" filterUnits="userSpaceOnUse" color-interpolation-filters="sRGB">
<feFlood flood-opacity="0" result="BackgroundImageFix"/>
<feBlend mode="normal" in="SourceGraphic" in2="BackgroundImageFix" result="shape"/>
<feGaussianBlur stdDeviation="63.6534" result="effect1_foregroundBlur_4445_111"/>
</filter>
<filter id="filter2_f_4445_111" x="714.624" y="305.494" width="533.152" height="515.382" filterUnits="userSpaceOnUse" color-interpolation-filters="sRGB">
<feFlood flood-opacity="0" result="BackgroundImageFix"/>
<feBlend mode="normal" in="SourceGraphic" in2="BackgroundImageFix" result="shape"/>
<feGaussianBlur stdDeviation="63.6534" result="effect1_foregroundBlur_4445_111"/>
</filter>
<filter id="filter3_f_4445_111" x="829.621" y="416.007" width="431.991" height="417.758" filterUnits="userSpaceOnUse" color-interpolation-filters="sRGB">
<feFlood flood-opacity="0" result="BackgroundImageFix"/>
<feBlend mode="normal" in="SourceGraphic" in2="BackgroundImageFix" result="shape"/>
<feGaussianBlur stdDeviation="55.655" result="effect1_foregroundBlur_4445_111"/>
</filter>
<filter id="filter4_f_4445_111" x="960.624" y="369.259" width="463.985" height="449.752" filterUnits="userSpaceOnUse" color-interpolation-filters="sRGB">
<feFlood flood-opacity="0" result="BackgroundImageFix"/>
<feBlend mode="normal" in="SourceGraphic" in2="BackgroundImageFix" result="shape"/>
<feGaussianBlur stdDeviation="63.6534" result="effect1_foregroundBlur_4445_111"/>
</filter>
<filter id="filter5_f_4445_111" x="661.554" y="243.556" width="760.753" height="759.321" filterUnits="userSpaceOnUse" color-interpolation-filters="sRGB">
<feFlood flood-opacity="0" result="BackgroundImageFix"/>
<feBlend mode="normal" in="SourceGraphic" in2="BackgroundImageFix" result="shape"/>
<feGaussianBlur stdDeviation="92.6883" result="effect1_foregroundBlur_4445_111"/>
</filter>
<filter id="filter6_f_4445_111" x="922.554" y="140.124" width="760.753" height="759.321" filterUnits="userSpaceOnUse" color-interpolation-filters="sRGB">
<feFlood flood-opacity="0" result="BackgroundImageFix"/>
<feBlend mode="normal" in="SourceGraphic" in2="BackgroundImageFix" result="shape"/>
<feGaussianBlur stdDeviation="92.6883" result="effect1_foregroundBlur_4445_111"/>
</filter>
<filter id="filter7_f_4445_111" x="661.554" y="235.169" width="760.753" height="759.321" filterUnits="userSpaceOnUse" color-interpolation-filters="sRGB">
<feFlood flood-opacity="0" result="BackgroundImageFix"/>
<feBlend mode="normal" in="SourceGraphic" in2="BackgroundImageFix" result="shape"/>
<feGaussianBlur stdDeviation="92.6883" result="effect1_foregroundBlur_4445_111"/>
</filter>
<filter id="filter8_f_4445_111" x="849.931" y="495.796" width="376" height="289.318" filterUnits="userSpaceOnUse" color-interpolation-filters="sRGB">
<feFlood flood-opacity="0" result="BackgroundImageFix"/>
<feBlend mode="normal" in="SourceGraphic" in2="BackgroundImageFix" result="shape"/>
<feGaussianBlur stdDeviation="29" result="effect1_foregroundBlur_4445_111"/>
</filter>
<filter id="filter9_f_4445_111" x="1017.55" y="251.01" width="661.753" height="660.549" filterUnits="userSpaceOnUse" color-interpolation-filters="sRGB">
<feFlood flood-opacity="0" result="BackgroundImageFix"/>
<feBlend mode="normal" in="SourceGraphic" in2="BackgroundImageFix" result="shape"/>
<feGaussianBlur stdDeviation="92.6883" result="effect1_foregroundBlur_4445_111"/>
</filter>
<filter id="filter10_f_4445_111" x="952.48" y="406.233" width="374.538" height="356.768" filterUnits="userSpaceOnUse" color-interpolation-filters="sRGB">
<feFlood flood-opacity="0" result="BackgroundImageFix"/>
<feBlend mode="normal" in="SourceGraphic" in2="BackgroundImageFix" result="shape"/>
<feGaussianBlur stdDeviation="24" result="effect1_foregroundBlur_4445_111"/>
</filter>
<filter id="filter11_f_4445_111" x="862.931" y="560.614" width="528" height="222.114" filterUnits="userSpaceOnUse" color-interpolation-filters="sRGB">
<feFlood flood-opacity="0" result="BackgroundImageFix"/>
<feBlend mode="normal" in="SourceGraphic" in2="BackgroundImageFix" result="shape"/>
<feGaussianBlur stdDeviation="32" result="effect1_foregroundBlur_4445_111"/>
</filter>
<filter id="filter12_f_4445_111" x="316.625" y="249.616" width="1698.95" height="582.407" filterUnits="userSpaceOnUse" color-interpolation-filters="sRGB">
<feFlood flood-opacity="0" result="BackgroundImageFix"/>
<feBlend mode="normal" in="SourceGraphic" in2="BackgroundImageFix" result="shape"/>
<feGaussianBlur stdDeviation="58" result="effect1_foregroundBlur_4445_111"/>
</filter>
<filter id="filter13_f_4445_111" x="297.625" y="208.093" width="1698.95" height="582.407" filterUnits="userSpaceOnUse" color-interpolation-filters="sRGB">
<feFlood flood-opacity="0" result="BackgroundImageFix"/>
<feBlend mode="normal" in="SourceGraphic" in2="BackgroundImageFix" result="shape"/>
<feGaussianBlur stdDeviation="58" result="effect1_foregroundBlur_4445_111"/>
</filter>
<linearGradient id="paint1_linear_4445_111" x1="1045.43" y1="418.762" x2="1045.43" y2="812.909" gradientUnits="userSpaceOnUse">
<stop stop-color="#E28F63" stop-opacity="0"/>
<stop offset="1" stop-color="#E28F63"/>
</linearGradient>
<linearGradient id="paint2_linear_4445_111" x1="1311.2" y1="446.778" x2="1311.2" y2="707.546" gradientUnits="userSpaceOnUse">
<stop stop-color="#E28F63" stop-opacity="0"/>
<stop offset="1" stop-color="#E28F63"/>
</linearGradient>
<linearGradient id="paint3_linear_4445_111" x1="981.199" y1="432.8" x2="981.199" y2="693.568" gradientUnits="userSpaceOnUse">
<stop stop-color="#E28F63" stop-opacity="0"/>
<stop offset="1" stop-color="#E28F63"/>
</linearGradient>
<linearGradient id="paint4_linear_4445_111" x1="1045.62" y1="527.317" x2="1045.62" y2="722.455" gradientUnits="userSpaceOnUse">
<stop stop-color="#E28F63" stop-opacity="0"/>
<stop offset="1" stop-color="#E28F63"/>
</linearGradient>
<linearGradient id="paint5_linear_4445_111" x1="1192.62" y1="496.566" x2="1192.62" y2="691.705" gradientUnits="userSpaceOnUse">
<stop stop-color="#E28F63" stop-opacity="0"/>
<stop offset="1" stop-color="#E28F63"/>
</linearGradient>
<linearGradient id="paint6_linear_4445_111" x1="1041.93" y1="428.932" x2="1041.93" y2="817.5" gradientUnits="userSpaceOnUse">
<stop stop-color="#E28F63" stop-opacity="0"/>
<stop offset="1" stop-color="#E28F63"/>
</linearGradient>
<linearGradient id="paint7_linear_4445_111" x1="1302.93" y1="325.5" x2="1302.93" y2="714.068" gradientUnits="userSpaceOnUse">
<stop stop-color="#E28F63" stop-opacity="0"/>
<stop offset="1" stop-color="#E28F63"/>
</linearGradient>
<linearGradient id="paint8_linear_4445_111" x1="1041.93" y1="420.546" x2="1041.93" y2="809.114" gradientUnits="userSpaceOnUse">
<stop stop-color="#E28F63" stop-opacity="0"/>
<stop offset="1" stop-color="#E28F63"/>
</linearGradient>
<linearGradient id="paint9_linear_4445_111" x1="1037.93" y1="553.796" x2="1037.93" y2="727.114" gradientUnits="userSpaceOnUse">
<stop stop-color="#E28F63" stop-opacity="0"/>
<stop offset="1" stop-color="#E28F63"/>
</linearGradient>
<linearGradient id="paint10_linear_4445_111" x1="1348.43" y1="436.387" x2="1348.43" y2="726.182" gradientUnits="userSpaceOnUse">
<stop stop-color="#E28F63" stop-opacity="0"/>
<stop offset="1" stop-color="#E28F63"/>
</linearGradient>
<linearGradient id="paint11_linear_4445_111" x1="1139.75" y1="454.233" x2="1139.75" y2="715" gradientUnits="userSpaceOnUse">
<stop stop-color="#E28F63" stop-opacity="0"/>
<stop offset="1" stop-color="#E28F63"/>
</linearGradient>
<linearGradient id="paint12_linear_4445_111" x1="1126.93" y1="624.614" x2="1126.93" y2="718.727" gradientUnits="userSpaceOnUse">
<stop stop-color="#E28F63" stop-opacity="0"/>
<stop offset="1" stop-color="#E28F63"/>
</linearGradient>
<linearGradient id="paint13_linear_4445_111" x1="1166.43" y1="715.523" x2="1166.43" y2="367.023" gradientUnits="userSpaceOnUse">
<stop stop-color="#E28F63" stop-opacity="0"/>
<stop offset="1" stop-color="#E28F63"/>
</linearGradient>
<linearGradient id="paint14_linear_4445_111" x1="1147.43" y1="674" x2="1147.43" y2="325.5" gradientUnits="userSpaceOnUse">
<stop stop-color="#E28F63" stop-opacity="0"/>
<stop offset="1" stop-color="#E28F63"/>
</linearGradient>
<linearGradient id="paint0_linear_4450_255" x1="814" y1="366" x2="814" y2="-141.5" gradientUnits="userSpaceOnUse">
<stop offset="0.45673" stop-color="#070322"/>
<stop offset="1" stop-color="#1C0C88" stop-opacity="0"/>
</linearGradient>
<linearGradient id="paint1_linear_4450_255" x1="829" y1="308" x2="829" y2="426" gradientUnits="userSpaceOnUse">
<stop stop-color="#8547F6"/>
<stop offset="1" stop-color="#070322"/>
</linearGradient>
<clipPath id="clip0_4450_255">
<rect width="447" height="186" fill="white" transform="translate(237 133)"/>
</clipPath>
<clipPath id="clip1_4450_255">
<rect width="410" height="169" fill="white" transform="translate(961 150)"/>
</clipPath>
</defs>
</svg>
